# File created by Blade
# Date/Time:  Mon Nov 15 14:44:42 2010
#---------------------------------------------------------
:version 1.10
:name HOM
:units
  mass 1.0
  length 1.000000
  angle deg
:documentation
     Acclaim Skeleton File
:root
   axis xyz
   order TX TY TZ RX RY RZ
   position 0.000000 0.000000 0.000000
   orientation 0 0 0
:bonedata
   begin
      id 1
      name LeftUpLeg_dum
      direction 1.000000 0.000000 0.000000
      length 4.719518
      axis 0.0 0.0 0.0 xyz
   end
   begin
      id 2
      name RightUpLeg_dum
      direction -1.000000 0.000000 0.000000
      length 4.719518
      axis 0.0 0.0 0.0 xyz
   end
   begin
      id 3
      name Spine_dum
      direction 0.000000 1.000000 0.000000
      length 0.039370
      axis 0.0 0.0 0.0 xyz
   end
   begin
      id 4
      name LeftUpLeg
      direction 0.000000 -1.000000 0.000000
      length 19.141694
      axis 0.0 0.0 0.0 xyz
      dof rx ry rz
   end
   begin
      id 5
      name LeftLeg
      direction 0.000000 -1.000000 0.000000
      length 19.555040
      axis 0.0 0.0 0.0 xyz
      dof rx ry rz
   end
   begin
      id 6
      name LeftFoot
      direction 0.000000 -0.258819 0.965926
      length 6.929396
      axis 15.0 0.0 0.0 xyz
      dof rx ry rz
   end
   begin
      id 7
      name LeftToeBase
      direction 0.000000 0.000000 1.000000
      length 2.952750
      axis 0.0 0.0 0.0 xyz
      dof rx ry rz
   end
   begin
      id 8
      name RightUpLeg
      direction 0.000000 -1.000000 0.000000
      length 19.141694
      axis 0.0 0.0 0.0 xyz
      dof rx ry rz
   end
   begin
      id 9
      name RightLeg
      direction 0.000000 -1.000000 0.000000
      length 19.555040
      axis 0.0 0.0 0.0 xyz
      dof rx ry rz
   end
   begin
      id 10
      name RightFoot
      direction 0.000000 -0.258819 0.965926
      length 6.929396
      axis 15.0 0.0 0.0 xyz
      dof rx ry rz
   end
   begin
      id 11
      name RightToeBase
      direction 0.000000 0.000000 1.000000
      length 2.952750
      axis 0.0 0.0 0.0 xyz
      dof rx ry rz
   end
   begin
      id 12
      name Spine
      direction 0.000000 1.000000 0.000000
      length 11.965764
      axis 0.0 0.0 0.0 xyz
      dof rx ry rz
   end
   begin
      id 13
      name Spine1
      direction 0.000000 1.000000 0.000000
      length 0.000000
      axis 0.0 0.0 0.0 xyz
      dof rx ry rz
   end
   begin
      id 14
      name Spine1_dum1
      direction 0.000000 1.000000 0.000000
      length 9.788721
      axis 0.0 0.0 0.0 xyz
   end
   begin
      id 15
      name Spine1_dum2
      direction 0.000000 1.000000 0.000000
      length 9.788721
      axis 0.0 0.0 0.0 xyz
   end
   begin
      id 16
      name Spine1_dum3
      direction 0.000000 1.000000 0.000000
      length 9.788721
      axis 0.0 0.0 0.0 xyz
   end
   begin
      id 17
      name Neck
      direction 0.000000 1.000000 0.000000
      length 7.029632
      axis 0.0 0.0 0.0 xyz
      dof rx ry rz
   end
   begin
      id 18
      name Head
      direction 0.000000 1.000000 0.000000
      length 4.527550
      axis 0.0 0.0 0.0 xyz
      dof rx ry rz
   end
   begin
      id 19
      name LeftShoulder
      direction 1.000000 -0.000004 0.000000
      length 9.320257
      axis 0.0 0.0 -90.0 xyz
      dof rx ry rz
   end
   begin
      id 20
      name LeftArm
      direction 1.000000 -0.000004 0.000000
      length 12.801352
      axis 0.0 0.0 -90.0 xyz
      dof rx ry rz
   end
   begin
      id 21
      name LeftForeArm
      direction 1.000000 -0.000004 0.000000
      length 11.278127
      axis 0.0 0.0 -90.0 xyz
      dof rx ry rz
   end
   begin
      id 22
      name LeftHand
      direction 0.000000 0.000000 0.000000
      length 0.000000
      axis 0.0 0.0 -90.0 xyz
      dof rx ry rz
   end
   begin
      id 23
      name LeftHand_dum1
      direction 0.000000 0.000000 0.000000
      length 0.000000
      axis 0.0 0.0 -90.0 xyz
   end
   begin
      id 24
      name LeftHand_dum2
      direction 1.000000 -0.000004 0.000000
      length 3.937000
      axis 0.0 0.0 -90.0 xyz
   end
   begin
      id 25
      name LeftHandThumb
      direction 0.000000 0.000000 1.000000
      length 3.937000
      axis 0.0 0.0 -90.0 xyz
      dof rx ry rz
   end
   begin
      id 26
      name RightShoulder
      direction -1.000000 -0.000004 0.000000
      length 9.320257
      axis 0.0 0.0 90.0 xyz
      dof rx ry rz
   end
   begin
      id 27
      name RightArm
      direction -1.000000 -0.000004 0.000000
      length 12.801352
      axis 0.0 0.0 90.0 xyz
      dof rx ry rz
   end
   begin
      id 28
      name RightForeArm
      direction -1.000000 -0.000004 0.000000
      length 11.278127
      axis 0.0 0.0 90.0 xyz
      dof rx ry rz
   end
   begin
      id 29
      name RightHand
      direction 0.000000 0.000000 0.000000
      length 0.000000
      axis 0.0 0.0 90.0 xyz
      dof rx ry rz
   end
   begin
      id 30
      name RightHand_dum1
      direction 0.000000 0.000000 0.000000
      length 0.000000
      axis 0.0 0.0 90.0 xyz
   end
   begin
      id 31
      name RightHand_dum2
      direction -1.000000 -0.000004 0.000000
      length 5.393690
      axis 0.0 0.0 90.0 xyz
   end
   begin
      id 32
      name RightHandThumb
      direction 0.000000 0.000000 1.000000
      length 3.937000
      axis 0.0 0.0 90.0 xyz
      dof rx ry rz
   end
:hierarchy
   begin
      root LeftUpLeg_dum RightUpLeg_dum Spine_dum
      LeftUpLeg_dum LeftUpLeg
      RightUpLeg_dum RightUpLeg
      Spine_dum Spine
      LeftUpLeg LeftLeg
      LeftLeg LeftFoot
      LeftFoot LeftToeBase
      RightUpLeg RightLeg
      RightLeg RightFoot
      RightFoot RightToeBase
      Spine Spine1
      Spine1 Spine1_dum1 Spine1_dum2 Spine1_dum3
      Spine1_dum1 Neck
      Spine1_dum2 LeftShoulder
      Spine1_dum3 RightShoulder
      Neck Head
      LeftShoulder LeftArm
      LeftArm LeftForeArm
      LeftForeArm LeftHand
      LeftHand LeftHand_dum1 LeftHand_dum2
      LeftHand_dum1 LeftHandThumb
      RightShoulder RightArm
      RightArm RightForeArm
      RightForeArm RightHand
      RightHand RightHand_dum1 RightHand_dum2
      RightHand_dum1 RightHandThumb
   end

# File created by Blade
# Date/Time:  Mon Nov 15 14:56:25 2010
# Frame Rate: 200.000 fps
#------------------------------------------------------
:FULLY-SPECIFIED
:DEGREES
192
root  7.887027 39.512765 -83.316998 -12.631447 3.718337 3.115283
LeftUpLeg  22.017946 3.283574 -6.749649
LeftLeg  3.549806 -0.000000 0.000000
LeftFoot  -11.055297 11.521439 2.183875
LeftToeBase  -23.900173 0.000000 -0.000000
RightUpLeg  -11.153239 -6.284594 -3.362468
RightLeg  34.346495 -0.000000 0.000000
RightFoot  -7.361511 -19.705358 -5.582453
RightToeBase  -33.357032 0.000000 -0.000000
Spine  12.889689 -4.002978 -2.121944
Spine1  4.125881 -3.030480 -7.491803
Neck  16.947768 -1.942375 -1.198948
Head  -23.797585 -2.376128 6.677461
LeftShoulder  -11.368576 12.602063 0.512651
LeftArm  12.188402 -4.406657 -78.579493
LeftForeArm  9.420990 -0.000000 0.000000
LeftHand  -10.459548 9.091996 -7.217763
LeftHandThumb  0.000000 -0.000000 0.000000
RightShoulder  -18.702894 -14.945175 2.334069
RightArm  3.919787 -11.553181 81.593445
RightForeArm  15.930822 -0.000000 0.000000
RightHand  -3.527514 -4.008457 17.143728
RightHandThumb  0.000000 -0.000000 0.000000
193
root  7.895747 39.501730 -83.234025 -12.508998 3.843778 3.087279
LeftUpLeg  22.098766 3.269615 -6.700491
LeftLeg  3.393627 -0.000000 0.000000
LeftFoot  -11.069571 11.398952 2.193816
LeftToeBase  -23.841349 0.000000 -0.000000
RightUpLeg  -11.550285 -6.263747 -3.252107
RightLeg  33.980143 -0.000000 0.000000
RightFoot  -7.094468 -19.644631 -5.503608
RightToeBase  -33.401524 0.000000 -0.000000
Spine  12.890537 -4.103832 -2.123986
Spine1  4.145562 -3.127144 -7.482110
Neck  16.961895 -1.963779 -1.158125
Head  -23.943803 -2.295353 6.700010
LeftShoulder  -11.191005 12.575185 0.472412
LeftArm  12.360468 -3.457522 -79.080063
LeftForeArm  9.897463 -0.000000 0.000000
LeftHand  -10.184907 8.745522 -7.141226
LeftHandThumb  0.000000 -0.000000 0.000000
RightShoulder  -18.604702 -14.882327 2.491537
RightArm  4.007560 -11.786593 82.000029
RightForeArm  15.357182 -0.000000 0.000000
RightHand  -3.979869 -3.940962 17.434221
RightHandThumb  0.000000 -0.000000 0.000000
194
root  7.904218 39.489266 -83.146865 -12.392494 3.951996 3.061924
LeftUpLeg  22.211042 3.213599 -6.670344
LeftLeg  3.198485 -0.000000 0.000000
LeftFoot  -11.063319 11.289740 2.120634
LeftToeBase  -23.953144 0.000000 -0.000000
RightUpLeg  -11.920997 -6.221300 -3.150450
RightLeg  33.560211 -0.000000 0.000000
RightFoot  -6.923190 -19.618890 -5.362584
RightToeBase  -33.456712 0.000000 -0.000000
Spine  12.889842 -4.188077 -2.151544
Spine1  4.178539 -3.215648 -7.438971
Neck  16.933474 -1.997661 -1.100395
Head  -24.022177 -2.214812 6.722862
LeftShoulder  -11.010535 12.492401 0.463062
LeftArm  12.451640 -2.452947 -79.534111
LeftForeArm  10.498983 -0.000000 0.000000
LeftHand  -9.913935 8.481997 -7.155368
LeftHandThumb  0.000000 -0.000000 0.000000
RightShoulder  -18.452727 -14.796315 2.640073
RightArm  4.067039 -12.249085 82.330596
RightForeArm  14.799656 -0.000000 0.000000
RightHand  -4.013373 -3.804030 17.523522
RightHandThumb  0.000000 -0.000000 0.000000
195
root  7.912815 39.476067 -83.057590 -12.276022 4.060265 3.036787
LeftUpLeg  22.323282 3.157523 -6.640310
LeftLeg  3.003343 -0.000000 0.000000
LeftFoot  -11.056928 11.180536 2.047468
LeftToeBase  -24.064939 0.000000 -0.000000
RightUpLeg  -12.291602 -6.178201 -3.049079
RightLeg  33.140279 -0.000000 0.000000
RightFoot  -6.751872 -19.593546 -5.221501
RightToeBase  -33.511900 0.000000 -0.000000
Spine  12.889188 -4.272323 -2.179105
Spine1  4.211452 -3.304176 -7.395880
Neck  16.905019 -2.031515 -1.042647
Head  -24.100515 -2.134240 6.745602
LeftShoulder  -10.830109 12.409647 0.453448
LeftArm  12.534791 -1.447684 -79.986288
LeftForeArm  11.100502 -0.000000 0.000000
LeftHand  -9.643080 8.218541 -7.170759
LeftHandThumb  0.000000 -0.000000 0.000000
RightShoulder  -18.300582 -14.710684 2.788785
RightArm  4.123889 -12.711905 82.661263
RightForeArm  14.242130 -0.000000 0.000000
RightHand  -4.046658 -3.667046 17.612729
RightHandThumb  0.000000 -0.000000 0.000000
196
root  7.922479 39.462927 -82.967878 -12.143719 4.157764 3.018096
LeftUpLeg  22.421534 3.143292 -6.606520
LeftLeg  2.829037 -0.000000 0.000000
LeftFoot  -11.025926 11.105549 2.071957
LeftToeBase  -24.009315 0.000000 -0.000000
RightUpLeg  -12.665790 -6.152193 -2.958702
RightLeg  32.665907 -0.000000 0.000000
RightFoot  -6.540554 -19.603999 -5.150221
RightToeBase  -33.558403 0.000000 -0.000000
Spine  12.848311 -4.346449 -2.191392
Spine1  4.258043 -3.375968 -7.357163
Neck  16.922753 -2.043630 -1.010570
Head  -24.181387 -2.090048 6.786843
LeftShoulder  -10.603199 12.367422 0.450697
LeftArm  12.708920 -0.459534 -80.366038
LeftForeArm  11.666536 -0.000000 0.000000
LeftHand  -9.260398 7.755017 -7.257009
LeftHandThumb  0.000000 -0.000000 0.000000
RightShoulder  -18.151035 -14.680184 2.933582
RightArm  4.176980 -13.194756 82.949946
RightForeArm  13.975739 -0.000000 0.000000
RightHand  -3.888499 -3.057213 17.663601
RightHandThumb  0.000000 -0.000000 0.000000
197
root  7.932377 39.449291 -82.876677 -12.011431 4.255305 2.999628
LeftUpLeg  22.519776 3.129002 -6.572756
LeftLeg  2.654731 -0.000000 0.000000
LeftFoot  -10.994966 11.030549 2.096400
LeftToeBase  -23.953691 0.000000 -0.000000
RightUpLeg  -13.039917 -6.125598 -2.868501
RightLeg  32.191536 -0.000000 0.000000
RightFoot  -6.329235 -19.614700 -5.078978
RightToeBase  -33.604907 0.000000 -0.000000
Spine  12.807447 -4.420584 -2.203628
Spine1  4.304590 -3.447792 -7.318502
Neck  16.940481 -2.055755 -0.978498
Head  -24.262225 -2.045797 6.828020
LeftShoulder  -10.376324 12.325207 0.447776
LeftArm  12.876497 0.529743 -80.742787
LeftForeArm  12.232570 -0.000000 0.000000
LeftHand  -8.877421 7.292074 -7.346286
LeftHandThumb  0.000000 -0.000000 0.000000
RightShoulder  -18.001430 -14.650050 3.078441
RightArm  4.227674 -13.677860 83.238751
RightForeArm  13.709348 -0.000000 0.000000
RightHand  -3.729879 -2.447523 17.716131
RightHandThumb  0.000000 -0.000000 0.000000
198
root  7.941052 39.435301 -82.783675 -11.879926 4.335608 2.989858
LeftUpLeg  22.626044 3.113395 -6.550726
LeftLeg  2.465560 -0.000000 0.000000
LeftFoot  -10.965678 10.974097 2.062030
LeftToeBase  -23.870046 0.000000 -0.000000
RightUpLeg  -13.410272 -6.078735 -2.794861
RightLeg  31.690596 -0.000000 0.000000
RightFoot  -6.067954 -19.642584 -5.037043
RightToeBase  -33.747146 0.000000 -0.000000
Spine  12.786704 -4.480591 -2.229094
Spine1  4.342014 -3.511064 -7.262818
Neck  16.932143 -2.086627 -0.944094
Head  -24.350852 -2.007904 6.876211
LeftShoulder  -10.197058 12.248798 0.436966
LeftArm  13.062088 1.689164 -81.005962
LeftForeArm  12.855364 -0.000000 0.000000
LeftHand  -8.677695 7.348172 -7.683026
LeftHandThumb  0.000000 -0.000000 0.000000
RightShoulder  -17.897164 -14.615448 3.242215
RightArm  4.328346 -14.312606 83.430110
RightForeArm  13.481987 -0.000000 0.000000
RightHand  -4.171834 -2.614484 18.226283
RightHandThumb  0.000000 -0.000000 0.000000
199
root  7.951314 39.419662 -82.688333 -11.748421 4.415933 2.980272
LeftUpLeg  22.732306 3.097747 -6.528726
LeftLeg  2.276390 -0.000000 0.000000
LeftFoot  -10.936362 10.917661 2.027638
LeftToeBase  -23.786401 0.000000 -0.000000
RightUpLeg  -13.780533 -6.031398 -2.721534
RightLeg  31.189656 -0.000000 0.000000
RightFoot  -5.806649 -19.670649 -4.995237
RightToeBase  -33.889386 0.000000 -0.000000
Spine  12.765986 -4.540608 -2.254541
Spine1  4.379380 -3.574372 -7.207171
Neck  16.923786 -2.117493 -0.909686
Head  -24.439444 -1.969936 6.924341
LeftShoulder  -10.017828 12.172422 0.425915
LeftArm  13.242494 2.849420 -81.265588
LeftForeArm  13.478158 -0.000000 0.000000
LeftHand  -8.478280 7.405432 -8.019610
LeftHandThumb  0.000000 -0.000000 0.000000
RightShoulder  -17.792811 -14.581135 3.406028
RightArm  4.427115 -14.947674 83.620869
RightForeArm  13.254625 -0.000000 0.000000
RightHand  -4.615321 -2.777502 18.737778
RightHandThumb  0.000000 -0.000000 0.000000
200
root  7.968456 39.400105 -82.589682 -11.704138 4.486172 2.981929
LeftUpLeg  22.895470 3.056153 -6.534891
LeftLeg  2.164984 -0.000000 0.000000
LeftFoot  -10.972388 10.857708 1.932411
LeftToeBase  -23.921509 0.000000 -0.000000
RightUpLeg  -14.045778 -5.972033 -2.696874
RightLeg  30.664425 -0.000000 0.000000
RightFoot  -5.439633 -19.609043 -5.067209
RightToeBase  -33.886799 0.000000 -0.000000
Spine  12.845648 -4.579926 -2.264497
Spine1  4.393583 -3.613124 -7.169183
Neck  16.878504 -2.098031 -0.885262
Head  -24.486766 -1.964967 7.040375
LeftShoulder  -9.765337 11.927876 0.529426
LeftArm  13.233157 3.438106 -81.784142
LeftForeArm  14.151877 -0.000000 0.000000
LeftHand  -8.576986 8.034247 -8.383025
LeftHandThumb  0.000000 -0.000000 0.000000
RightShoulder  -17.653512 -14.335502 3.482695
RightArm  4.173187 -15.447556 83.845581
RightForeArm  13.347251 -0.000000 0.000000
RightHand  -5.543212 -3.479569 19.699162
RightHandThumb  0.000000 -0.000000 0.000000
